inDegrees=no
num_controls=7
num_derivatives=13
num_iterations=144
num_multipliers=7
num_parameters=0
num_slacks=7
num_states=26
objective=0.554644
objective_accelerations=0.035278
objective_balance=0.002657
objective_effort=0.033976
objective_height=0.472626
objective_ligament=0.010106
solver_duration=1504.278237
status=Solve_Succeeded
success=true
DataType=double
version=3
OpenSimVersion=4.5
endheader
time	/jointset/ground_pelvis/pelvis_tilt/value	/jointset/ground_pelvis/pelvis_tx/value	/jointset/ground_pelvis/pelvis_ty/value	/jointset/hip_r/hip_flexion_r/value	/jointset/hip_r/hip_adduction_r/value	/jointset/hip_r/hip_rotation_r/value	/jointset/back/lumbar_extension/value	/jointset/patellofemoral_r/patellar_flexion_r/value	/jointset/knee_r/knee_flexion_r/value	/jointset/knee_r/knee_adduction_r/value	/jointset/knee_r/knee_rotation_r/value	/jointset/ankle_r/ankle_angle_r/value	/jointset/subtalar_r/subtalar_angle_r/value	/jointset/ground_pelvis/pelvis_tilt/speed	/jointset/ground_pelvis/pelvis_tx/speed	/jointset/ground_pelvis/pelvis_ty/speed	/jointset/hip_r/hip_flexion_r/speed	/jointset/hip_r/hip_adduction_r/speed	/jointset/hip_r/hip_rotation_r/speed	/jointset/back/lumbar_extension/speed	/jointset/patellofemoral_r/patellar_flexion_r/speed	/jointset/knee_r/knee_flexion_r/speed	/jointset/knee_r/knee_adduction_r/speed	/jointset/knee_r/knee_rotation_r/speed	/jointset/ankle_r/ankle_angle_r/speed	/jointset/subtalar_r/subtalar_angle_r/speed	/forceset/tau_hip_flexion_r	/forceset/tau_hip_adduction_r	/forceset/tau_hip_rotation_r	/forceset/tau_knee_flexion_r	/forceset/tau_ankle_angle_r	/forceset/tau_subtalar_angle_r	/forceset/tau_lumbar_extension	lambda_cid13_p0	lambda_cid14_p0	lambda_cid14_p1	lambda_cid14_p2	lambda_cid14_p3	lambda_cid14_p4	lambda_cid14_p5	/jointset/ground_pelvis/pelvis_tilt/accel	/jointset/ground_pelvis/pelvis_tx/accel	/jointset/ground_pelvis/pelvis_ty/accel	/jointset/hip_r/hip_flexion_r/accel	/jointset/hip_r/hip_adduction_r/accel	/jointset/hip_r/hip_rotation_r/accel	/jointset/back/lumbar_extension/accel	/jointset/patellofemoral_r/patellar_flexion_r/accel	/jointset/knee_r/knee_flexion_r/accel	/jointset/knee_r/knee_adduction_r/accel	/jointset/knee_r/knee_rotation_r/accel	/jointset/ankle_r/ankle_angle_r/accel	/jointset/subtalar_r/subtalar_angle_r/accel	gamma_cid13_p0	gamma_cid14_p0	gamma_cid14_p1	gamma_cid14_p2	gamma_cid14_p3	gamma_cid14_p4	gamma_cid14_p5
0	-0.006515265453920693	0.09626023267285853	0.9427240994815937	0.1762555222360518	-0.2321524470286758	-0.2616406991915081	-0.038598046466844	0.07317863873451182	0.07317863873451017	0.1745322526668149	0.1745328845448364	0.03247278518263602	-0.003451714878226271	0	0	0	0	0	0	0	0	0	0	0	0	0	0.2156091648197244	-0.1566053526977724	-0.04472598595317663	-0.4093070471711831	0.4203115445208399	-0.1517928630791083	-0.1108066329948879	-39.07630864645121	85.11017664499175	-41.22213000106357	-4.161294417915853	-43.15272253195777	-681.4269217433848	53.37054440609622	-1.016890386533692	-0.6111678073513904	-0.4212628329568657	6.46707219279912	0.2990958629377197	2.052546194172787	-4.549330479896192	7.816835357120866	7.816835357120001	-2.709246980590079	0.1467497365735107	3.162900734156143	1.032867185910086	8.16385840875488e-08	5.284186273512932e-08	-5.209683682679065e-07	1.910473035315388e-07	2.357674349500872e-08	1.329447107236737e-08	-2.962239619055635e-07
0.01	-0.006561296253830146	0.09623114641588398	0.9427039599817421	0.1765668839477224	-0.2321365819480327	-0.2615305481423569	-0.03882646310833043	0.07355897239934164	0.07355897239934249	0.1743969623503276	0.1745298047945103	0.0326289659648161	-0.003399654565160269	-0.009164058570861692	-0.005692615280257597	-0.004018421342658209	0.0618916240639309	0.003095403948589922	0.02193802823265385	-0.04533663463831179	0.07578612442291413	0.07578612442292128	-0.02681231019042357	-0.0005951262405906983	0.03123027706926254	0.01032997030721088	0.2136983890306315	-0.1727893389979279	-0.04438760252627531	-0.4094880144390292	0.4189524097106924	-0.1366213276151447	-0.1087529327058207	-39.08889830843953	85.27428825454786	-34.69854990555116	-5.093787365706365	-44.63446158630409	-681.8510433724102	66.33328895091411	-0.8598427442889303	-0.5296082558450912	-0.3907073318757479	5.993105293641776	0.3030746858977509	2.250647686883749	-4.47382590694208	7.417393375640786	7.417393375642252	-2.630419911049992	-0.1594686650009711	3.102223775977422	1.020687916860401	1.077563088211599e-07	5.878974012519428e-08	-6.928471205010581e-07	1.947223989055309e-07	4.617375330122551e-08	-9.585907559977583e-08	-3.564146895944969e-07
0.02	-0.006697703469833859	0.09614887403261037	0.9426439211590728	0.1774857414561236	-0.2320921004228879	-0.2612037735010645	-0.03949784528642808	0.07468874578655915	0.07468874578655903	0.174000909557364	0.1745214088096544	0.03309727603422236	-0.003246769356275374	-0.01807528321878423	-0.01063722525981113	-0.007979864563522137	0.1214991593459285	0.005723288900305919	0.04332471842818938	-0.08859310732235813	0.1498879444763925	0.1498879444764055	-0.05215249529210593	-0.001063246906203569	0.06242585744516953	0.02016497916377386	0.2117876132415506	-0.188973325298088	-0.04404921909941468	-0.4096689817068632	0.4175932749005457	-0.121449792151185	-0.1066992324167429	-39.12618292654997	85.50906091046159	-28.18439094668349	-5.999883745101876	-46.28877609666931	-681.208806170584	79.07698017489501	-0.9663236019458498	-0.4615667472105874	-0.4098672085980098	6.010254436412462	0.2055920635629271	1.942278586749078	-4.133298089043095	7.479974483233725	7.479974483232608	-2.41482196284182	0.1721508515691274	3.155961395485019	0.9338748957804934	1.33874033554771e-07	6.473761751525924e-08	-8.647258727342098e-07	1.983974942795229e-07	6.877076310744229e-08	-2.05012622271919e-07	-4.166054172834304e-07
0.03	-0.006921922385910469	0.09601899270035945	0.9425443462134468	0.1789913339352464	-0.2320235358159802	-0.2606685591962705	-0.04059204936268763	0.07655114480259355	0.07655114480259441	0.1733588532991257	0.1745111838443368	0.03387479224727404	-0.00299839740846742	-0.02669294919000362	-0.01540375190268494	-0.01193993329197827	0.1794031538640973	0.007948188780249978	0.06360634310993028	-0.1299974569850331	0.2222468270898813	0.2222468270898983	-0.07605855074841751	-0.0009990022500270383	0.09280999361101359	0.02940733385652941	0.2032945378586155	-0.189784016515826	-0.04141823875973721	-0.3957644151805807	0.3943313574257039	-0.1119934096373916	-0.1004493182822581	-39.1873630991763	78.38736836130154	-25.38762954894377	-6.373587541190061	-40.98501659452269	-680.7878110598184	83.27305023373997	-0.7981406558756493	-0.4938883842482156	-0.3898394580654022	5.648054962221607	0.2246329190148631	2.054386544270542	-4.10646576318566	7.062063523971947	7.06206352397325	-2.348578824587301	-0.07896172293065151	2.939557705635216	0.9039900253200451	1.557222361876601e-07	7.381091655959929e-08	-9.997579919273816e-07	2.191897607068498e-07	8.16207504158066e-08	-2.790700255107771e-07	-4.739212814793652e-07
0.04	-0.007230048473932666	0.09583950754939527	0.9424050180299172	0.1810694829600915	-0.2319339834165119	-0.2599338722175821	-0.04209278940723492	0.07912677631947837	0.07912677631947873	0.1724837201888065	0.1745010967264558	0.03494813341768452	-0.002660687059872531	-0.03485671760784886	-0.0205579890024652	-0.01593051214426656	0.2360104684903659	0.00992084741238322	0.08321925320702823	-0.1699003009799446	0.2925344446459896	0.2925344446460169	-0.09876786570718764	-0.001035677416751843	0.1215908489169022	0.03803265932116316	0.1948014624756846	-0.1905947077335662	-0.03878725842007758	-0.3818598486542936	0.3710694399508623	-0.1025370271236001	-0.09419940414776951	-39.27133258112799	71.33051262292447	-22.59373415344375	-6.730592927613918	-35.84616226562866	-679.4016369885352	87.28085587202098	-0.8755440912710107	-0.539108838591888	-0.4159692333644423	5.750918458032414	0.1551438140007586	1.808535669820435	-3.83299695549037	7.06572147175762	7.065721471757788	-2.175473863333516	0.1519668869889141	2.835305223493925	0.8104690501561261	1.774824074370292e-07	8.294865728753266e-08	-1.134030386727977e-06	2.403349584961011e-07	9.42697681881327e-08	-3.524037969262685e-07	-5.311778701393619e-07
0.05	-0.007618091686948459	0.09560745015524909	0.9422254971251187	0.1837071544533331	-0.2318259799635821	-0.2590074796474288	-0.04398452053705672	0.08239589311025688	0.08239589311025684	0.1713875028372012	0.1744913129064908	0.03630273490975193	-0.002239448940779464	-0.04270107180985861	-0.02582551525737968	-0.0199866336277407	0.2912370857023699	0.01163443925690445	0.1019343908320876	-0.2081721480270282	0.3609736749842621	0.3609736749842872	-0.1202616722245019	-0.000927359516551122	0.1491880262827492	0.04613958389078839	0.189343068519989	-0.1792941144263532	-0.03732009145697166	-0.3757567196894979	0.3632091590881956	-0.1077896545201907	-0.08985499452683422	-39.37674273100416	68.66253293822174	-25.38779689949851	-6.232939840158862	-34.12024081807938	-678.618352023979	80.46939302184876	-0.7312317125512278	-0.5163593773943225	-0.4024494010450178	5.365535832072588	0.1725373615575874	1.884337618022849	-3.783212035689089	6.685702363733781	6.685702363733332	-2.104393865726599	-0.06059456987859987	2.700746985291729	0.7993448343097123	1.744008211861614e-07	7.758379108564672e-08	-1.108302818374533e-06	2.303479086530263e-07	9.807521525232383e-08	-4.075779164781181e-07	-5.23623537320842e-07
